<svg width="40" height="9" viewBox="0 0 40 9" fill="none" xmlns="http://www.w3.org/2000/svg">
<path d="M0.888672 8.89024V0H6.43746C7.59612 0 8.47309 0.211382 9.06836 0.634146C9.66363 1.04878 9.96127 1.59756 9.96127 2.28049C9.96127 2.61382 9.88154 2.91463 9.7221 3.18293C9.56265 3.44309 9.33411 3.66667 9.03647 3.85366C8.73883 4.04065 8.37742 4.17073 7.95222 4.2439L7.93628 4.31707C8.46777 4.38211 8.9036 4.5122 9.24375 4.70732C9.58391 4.90244 9.83902 5.14228 10.0091 5.42683C10.1792 5.71138 10.2642 6.02439 10.2642 6.36585C10.2642 6.91057 10.0995 7.37398 9.76993 7.7561C9.45103 8.13008 8.98863 8.41463 8.38273 8.60976C7.77683 8.79675 7.04337 8.89024 6.18235 8.89024H0.888672ZM2.94555 7.63415H5.95912C6.70321 7.63415 7.24533 7.50813 7.58549 7.2561C7.93628 7.00407 8.11167 6.6748 8.11167 6.26829C8.11167 5.82927 7.93096 5.5 7.56955 5.28049C7.21876 5.06098 6.72979 4.95122 6.10262 4.95122H2.73827V3.7439H6.00696C6.42152 3.7439 6.76168 3.69106 7.02742 3.58537C7.3038 3.47967 7.50577 3.3374 7.63333 3.15854C7.77151 2.97154 7.84061 2.75203 7.84061 2.5C7.84061 2.0935 7.6599 1.78455 7.29848 1.57317C6.9477 1.35366 6.47998 1.2439 5.89534 1.2439H2.94555V7.63415Z" fill="black"/>
<path d="M14.9495 9C14.3117 9 13.7377 8.92683 13.2275 8.78049C12.7172 8.62602 12.2708 8.40244 11.8881 8.10976C11.5161 7.81707 11.229 7.46341 11.0271 7.04878C10.8357 6.63415 10.7401 6.16667 10.7401 5.64634C10.7401 4.97967 10.9048 4.39431 11.2344 3.89024C11.5745 3.38618 12.0582 2.99187 12.6853 2.70732C13.3125 2.42276 14.0672 2.28049 14.9495 2.28049C15.5767 2.28049 16.1454 2.35772 16.6556 2.5122C17.1658 2.66667 17.6017 2.89024 17.9631 3.18293C18.3351 3.47561 18.6221 3.82927 18.8241 4.2439C19.0261 4.65041 19.127 5.11789 19.127 5.64634C19.127 6.30488 18.957 6.88618 18.6168 7.39024C18.2873 7.89431 17.8089 8.28862 17.1818 8.57317C16.5652 8.85772 15.8211 9 14.9495 9ZM14.9336 7.7439C15.3694 7.7439 15.7521 7.66667 16.0816 7.5122C16.4111 7.34959 16.6662 7.11382 16.8469 6.80488C17.0276 6.4878 17.118 6.10163 17.118 5.64634C17.118 5.30488 17.0648 5.00406 16.9585 4.7439C16.8629 4.47561 16.7194 4.25203 16.528 4.07317C16.3367 3.89431 16.1082 3.76016 15.8424 3.67073C15.5767 3.5813 15.279 3.53659 14.9495 3.53659C14.5137 3.53659 14.1257 3.61789 13.7855 3.78049C13.456 3.93496 13.2009 4.17073 13.0202 4.4878C12.8395 4.79675 12.7491 5.18293 12.7491 5.64634C12.7491 5.9878 12.797 6.29268 12.8926 6.56098C12.9989 6.82114 13.1477 7.04065 13.3391 7.21951C13.5304 7.39024 13.759 7.52033 14.0247 7.60976C14.3011 7.69919 14.604 7.7439 14.9336 7.7439Z" fill="black"/>
<path d="M23.8337 9C23.196 9 22.6219 8.92683 22.1117 8.78049C21.6015 8.62602 21.155 8.40244 20.7723 8.10976C20.4003 7.81707 20.1133 7.46341 19.9113 7.04878C19.72 6.63415 19.6243 6.16667 19.6243 5.64634C19.6243 4.97967 19.7891 4.39431 20.1186 3.89024C20.4588 3.38618 20.9424 2.99187 21.5696 2.70732C22.1967 2.42276 22.9515 2.28049 23.8337 2.28049C24.4609 2.28049 25.0296 2.35772 25.5398 2.5122C26.0501 2.66667 26.4859 2.89024 26.8473 3.18293C27.2194 3.47561 27.5064 3.82927 27.7083 4.2439C27.9103 4.65041 28.0113 5.11789 28.0113 5.64634C28.0113 6.30488 27.8412 6.88618 27.5011 7.39024C27.1715 7.89431 26.6932 8.28862 26.066 8.57317C25.4495 8.85772 24.7054 9 23.8337 9ZM23.8178 7.7439C24.2536 7.7439 24.6363 7.66667 24.9658 7.5122C25.2954 7.34959 25.5505 7.11382 25.7312 6.80488C25.9119 6.4878 26.0022 6.10163 26.0022 5.64634C26.0022 5.30488 25.9491 5.00406 25.8428 4.7439C25.7471 4.47561 25.6036 4.25203 25.4123 4.07317C25.2209 3.89431 24.9924 3.76016 24.7267 3.67073C24.4609 3.5813 24.1633 3.53659 23.8337 3.53659C23.3979 3.53659 23.0099 3.61789 22.6698 3.78049C22.3402 3.93496 22.0851 4.17073 21.9044 4.4878C21.7237 4.79675 21.6334 5.18293 21.6334 5.64634C21.6334 5.9878 21.6812 6.29268 21.7769 6.56098C21.8832 6.82114 22.032 7.04065 22.2233 7.21951C22.4147 7.39024 22.6432 7.52033 22.9089 7.60976C23.1853 7.69919 23.4883 7.7439 23.8178 7.7439Z" fill="black"/>
<path d="M28.7066 8.89024V0H30.6997V8.89024H28.7066Z" fill="black"/>
<path d="M31.8919 8.89024V2.40244H33.885V8.89024H31.8919ZM32.8964 1.52439C32.5775 1.52439 32.3117 1.45935 32.0991 1.32927C31.8972 1.19106 31.7962 1.00813 31.7962 0.780488C31.7962 0.544716 31.8972 0.361789 32.0991 0.231707C32.3117 0.101626 32.5775 0.0365856 32.8964 0.0365856C33.2153 0.0365856 33.4757 0.101626 33.6777 0.231707C33.8903 0.361789 33.9966 0.544716 33.9966 0.780488C33.9966 1.00813 33.8903 1.19106 33.6777 1.32927C33.4757 1.45935 33.2153 1.52439 32.8964 1.52439Z" fill="black"/>
<path d="M35.0771 8.89024V2.40244H37.0702V8.89024H35.0771ZM36.0816 1.52439C35.7627 1.52439 35.497 1.45935 35.2844 1.32927C35.0824 1.19106 34.9814 1.00813 34.9814 0.780488C34.9814 0.544716 35.0824 0.361789 35.2844 0.231707C35.497 0.101626 35.7627 0.0365856 36.0816 0.0365856C36.4005 0.0365856 36.6609 0.101626 36.8629 0.231707C37.0755 0.361789 37.1818 0.544716 37.1818 0.780488C37.1818 1.00813 37.0755 1.19106 36.8629 1.32927C36.6609 1.45935 36.4005 1.52439 36.0816 1.52439Z" fill="black"/>
<path d="M38.8363 8.98781C38.5174 8.98781 38.257 8.9187 38.055 8.78049C37.8637 8.63415 37.768 8.44715 37.768 8.21951C37.768 7.98374 37.8637 7.79675 38.055 7.65854C38.257 7.52033 38.5174 7.45122 38.8363 7.45122C39.1446 7.45122 39.3944 7.52033 39.5857 7.65854C39.7877 7.79675 39.8887 7.98374 39.8887 8.21951C39.8887 8.44715 39.7877 8.63415 39.5857 8.78049C39.3944 8.9187 39.1446 8.98781 38.8363 8.98781Z" fill="black"/>
</svg>
