<svg width="33" height="30" viewBox="0 0 33 30" fill="none" xmlns="http://www.w3.org/2000/svg">
<path d="M27.776 7.52C27.776 9.33333 27.136 10.9013 25.856 12.224C24.576 13.5253 22.7093 14.464 20.256 15.04C21.5787 15.4027 22.5813 16 23.264 16.832C23.9467 17.6427 24.288 18.5813 24.288 19.648C24.288 21.3333 23.7547 22.7947 22.688 24.032C21.6427 25.2693 20.1067 26.2293 18.08 26.912C16.0533 27.5733 13.6107 27.904 10.752 27.904C9.68533 27.904 8.832 27.872 8.192 27.808C8.17067 28.4053 7.91467 28.8533 7.424 29.152C6.93333 29.4507 6.304 29.6 5.536 29.6C4.768 29.6 4.23467 29.4293 3.936 29.088C3.65867 28.7467 3.54133 28.2453 3.584 27.584C3.776 24.5973 4.14933 21.472 4.704 18.208C5.25867 14.9227 5.96267 11.7547 6.816 8.704C6.96533 8.17067 7.264 7.79733 7.712 7.584C8.16 7.37067 8.74667 7.264 9.472 7.264C10.7733 7.264 11.424 7.62667 11.424 8.352C11.424 8.65067 11.36 8.992 11.232 9.376C10.6773 11.04 10.1227 13.3013 9.568 16.16C9.01333 18.9973 8.61867 21.7067 8.384 24.288C9.408 24.3733 10.24 24.416 10.88 24.416C13.8667 24.416 16.0533 23.9893 17.44 23.136C18.848 22.2613 19.552 21.152 19.552 19.808C19.552 18.8693 19.1467 18.08 18.336 17.44C17.5467 16.8 16.2133 16.448 14.336 16.384C13.9093 16.3627 13.6107 16.256 13.44 16.064C13.2693 15.872 13.184 15.5627 13.184 15.136C13.184 14.5173 13.312 14.016 13.568 13.632C13.824 13.248 14.2933 13.0453 14.976 13.024C16.4907 12.9813 17.856 12.7573 19.072 12.352C20.3093 11.9467 21.28 11.3813 21.984 10.656C22.688 9.90933 23.04 9.04533 23.04 8.064C23.04 6.82667 22.432 5.856 21.216 5.152C20 4.42667 18.1333 4.064 15.616 4.064C13.3333 4.064 11.1253 4.36267 8.992 4.96C6.85867 5.536 5.04533 6.272 3.552 7.168C2.86933 7.57333 2.29333 7.776 1.824 7.776C1.44 7.776 1.14133 7.648 0.928 7.392C0.736 7.11467 0.64 6.77333 0.64 6.368C0.64 5.83467 0.746667 5.376 0.96 4.992C1.19467 4.608 1.73867 4.17067 2.592 3.68C4.384 2.656 6.48533 1.856 8.896 1.28C11.3067 0.703999 13.7707 0.415998 16.288 0.415998C20.1493 0.415998 23.0293 1.06667 24.928 2.368C26.8267 3.66933 27.776 5.38667 27.776 7.52ZM29.9003 28.16C28.9616 28.16 28.2469 27.904 27.7563 27.392C27.2869 26.88 27.0523 26.208 27.0523 25.376C27.0523 24.416 27.3189 23.648 27.8523 23.072C28.4069 22.496 29.1749 22.208 30.1562 22.208C31.0949 22.208 31.7989 22.4427 32.2683 22.912C32.7589 23.36 33.0043 24.032 33.0043 24.928C33.0043 25.9093 32.7269 26.6987 32.1723 27.296C31.6176 27.872 30.8603 28.16 29.9003 28.16Z" fill="black"/>
</svg>
